#tb 0: 1/44100
#media_type 0: audio
#codec_id 0: pcm_s16le
#sample_rate 0: 44100
#channel_layout_name 0: mono
0,          0,          0,     1152,     2304, 0x907cb7fa
0,       1152,       1152,     1152,     2304, 0xb8dc7525
0,       2304,       2304,     1152,     2304, 0x3e7d6905
0,       3456,       3456,     1152,     2304, 0xef47877b
0,       4608,       4608,     1152,     2304, 0xfe916b7e
0,       5760,       5760,     1152,     2304, 0xe3d08cde
0,       6912,       6912,     1152,     2304, 0xff7f86cf
0,       8064,       8064,     1152,     2304, 0x843e6f95
0,       9216,       9216,     1152,     2304, 0x81577c26
0,      10368,      10368,     1152,     2304, 0x04a085d5
0,      11520,      11520,     1152,     2304, 0x1c5a76f5
0,      12672,      12672,     1152,     2304, 0x4ee78623
0,      13824,      13824,     1152,     2304, 0x8ec861dc
0,      14976,      14976,     1152,     2304, 0x0ca179d8
0,      16128,      16128,     1152,     2304, 0xc6da750f
0,      17280,      17280,     1152,     2304, 0xf6bf79b5
0,      18432,      18432,     1152,     2304, 0x97b88a43
0,      19584,      19584,     1152,     2304, 0xf13c7b9c
0,      20736,      20736,     1152,     2304, 0xdfba83af
0,      21888,      21888,     1152,     2304, 0xc9467d4b
0,      23040,      23040,     1152,     2304, 0xbbb58e2b
0,      24192,      24192,     1152,     2304, 0x3a1078ea
0,      25344,      25344,     1152,     2304, 0xe9587a5c
0,      26496,      26496,     1152,     2304, 0xef5a8039
0,      27648,      27648,     1152,     2304, 0x9d5f782f
0,      28800,      28800,     1152,     2304, 0x1a548291
0,      29952,      29952,     1152,     2304, 0x07517701
0,      31104,      31104,     1152,     2304, 0x78127d6e
0,      32256,      32256,     1152,     2304, 0x62e2788a
0,      33408,      33408,     1152,     2304, 0x29397ad9
0,      34560,      34560,     1152,     2304, 0x45da82d6
0,      35712,      35712,     1152,     2304, 0x8ed66e51
0,      36864,      36864,     1152,     2304, 0x660775cd
0,      38016,      38016,     1152,     2304, 0x802c767a
0,      39168,      39168,     1152,     2304, 0xcc055840
0,      40320,      40320,     1152,     2304, 0x701b7eaf
0,      41472,      41472,     1152,     2304, 0x8290749f
0,      42624,      42624,     1152,     2304, 0x2c7b7d30
0,      43776,      43776,     1152,     2304, 0xe4f17743
0,      44928,      44928,     1152,     2304, 0x0e747d6e
0,      46080,      46080,     1152,     2304, 0xbe7775a0
0,      47232,      47232,     1152,     2304, 0xcf797673
0,      48384,      48384,     1152,     2304, 0x29cb7800
0,      49536,      49536,     1152,     2304, 0xfc947890
0,      50688,      50688,     1152,     2304, 0x62757fc6
0,      51840,      51840,     1152,     2304, 0x098876d0
0,      52992,      52992,     1152,     2304, 0xa9567ee2
0,      54144,      54144,     1152,     2304, 0xe3bb9173
0,      55296,      55296,     1152,     2304, 0xcc2d6dee
0,      56448,      56448,     1152,     2304, 0xe94591ab
0,      57600,      57600,     1152,     2304, 0x5c7588de
0,      58752,      58752,     1152,     2304, 0xfd83643c
0,      59904,      59904,     1152,     2304, 0x528177f1
0,      61056,      61056,     1152,     2304, 0x65d08474
0,      62208,      62208,     1152,     2304, 0x738d765b
0,      63360,      63360,     1152,     2304, 0xdd3d810e
0,      64512,      64512,     1152,     2304, 0xef4f90d3
0,      65664,      65664,     1152,     2304, 0x61e28d43
0,      66816,      66816,     1152,     2304, 0x9a11796b
0,      67968,      67968,     1152,     2304, 0x96c97dcd
0,      69120,      69120,     1152,     2304, 0xa8fe8621
0,      70272,      70272,     1152,     2304, 0x499b7d38
0,      71424,      71424,     1152,     2304, 0xfcb078a9
0,      72576,      72576,     1152,     2304, 0x40d78651
0,      73728,      73728,     1152,     2304, 0xa4af7234
0,      74880,      74880,     1152,     2304, 0x6831870a
0,      76032,      76032,     1152,     2304, 0x030e7b9d
0,      77184,      77184,     1152,     2304, 0x445a75b6
0,      78336,      78336,     1152,     2304, 0x09857389
0,      79488,      79488,     1152,     2304, 0x0d018866
0,      80640,      80640,     1152,     2304, 0x2afe810a
0,      81792,      81792,     1152,     2304, 0x0bcf7c43
0,      82944,      82944,     1152,     2304, 0x13737c12
0,      84096,      84096,     1152,     2304, 0x716c7bba
0,      85248,      85248,     1152,     2304, 0xb801823b
0,      86400,      86400,     1152,     2304, 0x0fd573ee
0,      87552,      87552,     1152,     2304, 0x83f18952
